<svg width="20" height="21" viewBox="0 0 20 21" fill="none" xmlns="http://www.w3.org/2000/svg">
<path d="M5.43306 13.9307L6.69485 10.7762C6.89603 10.2733 7.19728 9.81641 7.58033 9.43336L14.4995 2.51463C15.3279 1.6862 16.6711 1.68621 17.4995 2.51463C18.3279 3.34306 18.3279 4.6862 17.4995 5.51463L10.5803 12.4334C10.1973 12.8164 9.74042 13.1177 9.23746 13.3188L6.08299 14.5806C5.67484 14.7439 5.2698 14.3388 5.43306 13.9307Z" fill="white"/>
<path d="M3.5 5.76392C3.5 5.07356 4.05964 4.51392 4.75 4.51392H10C10.4142 4.51392 10.75 4.17813 10.75 3.76392C10.75 3.3497 10.4142 3.01392 10 3.01392H4.75C3.23122 3.01392 2 4.24513 2 5.76392V15.2639C2 16.7827 3.23122 18.0139 4.75 18.0139H14.25C15.7688 18.0139 17 16.7827 17 15.2639V10.0139C17 9.5997 16.6642 9.26392 16.25 9.26392C15.8358 9.26392 15.5 9.5997 15.5 10.0139V15.2639C15.5 15.9543 14.9404 16.5139 14.25 16.5139H4.75C4.05964 16.5139 3.5 15.9543 3.5 15.2639V5.76392Z" fill="white"/>
</svg>
